# xmcd CD database file
#
# Track frame offsets:
#	150
#	14865
#	16420
#	24400
#	31585
#	36467
#	42387
#	46055
#	54582
#	59115
#	64435
#	65962
#	73045
#	77972
#	99700
#	107410
#	112747
#	122030
#	130635
#	133242
#	144735
#	159435
#
# Disc length: 2297 seconds
#
# Revision: 0
# Processed by: cddbd v1.5PL3 Copyright (c) Steve Scherf et al.
# Submitted via: CDex 1.50beta10
#
DISCID=4608f716
DTITLE=柴野さつき - 形のない息吹
DYEAR=1993
DGENRE=New Age
TTITLE0=Op.17,No.3
TTITLE1=匿名の手紙
TTITLE2=Op.11,No.4
TTITLE3=Op.11,No.9
TTITLE4=Op.2,No.2
TTITLE5=Op.15,No.4
TTITLE6=未知の受取人
TTITLE7=Op.11,No.15
TTITLE8=Op.27,No.2
TTITLE9=Op.13,No.3
TTITLE10=形のない思い
TTITLE11=Op.11,No.13
TTITLE12=Op.33,No.2
TTITLE13=愛の言葉
TTITLE14=No.11,No.21
TTITLE15=Op.33,No.1
TTITLE16=Op.37,No.1
TTITLE17=Op.37,No.3
TTITLE18=局留め郵便
TTITLE19=Op.16,No.1
TTITLE20=Op.22,No.2
TTITLE21=Op.17,No.3〜Encore
EXTD=YEAR: 1993
EXTT0=
EXTT1=
EXTT2=
EXTT3=
EXTT4=
EXTT5=
EXTT6=
EXTT7=
EXTT8=
EXTT9=
EXTT10=
EXTT11=
EXTT12=
EXTT13=
EXTT14=
EXTT15=
EXTT16=
EXTT17=
EXTT18=
EXTT19=
EXTT20=
EXTT21=
PLAYORDER=
